<?xml version="1.0" encoding="UTF-8"?><svg id="Layer_1" xmlns="http://www.w3.org/2000/svg" viewBox="0 0 970 131"><defs><style>.cls-1{fill:#a653ff;}</style></defs><path class="cls-1" d="m45.7012,113.74546c12.91119,0,19.54811-8.42832,21.33951-13.81126h19.1942c-1.43749,8.79097-12.01986,30.6679-40.5337,30.6679C18.97875,130.6021.50549,110.15829.50549,83.2567c0-26.36417,18.83155-47.34539,44.30001-47.34539,24.74754,0,43.04166,20.98123,43.04166,46.27055,0,2.50796-.17914,4.84115-.35828,6.81169H19.69531c1.61663,13.81126,10.22409,24.75191,26.00589,24.75191Zm23.13528-38.73793c-1.97491-12.37377-10.22409-22.23958-24.03098-22.23958-13.81126,0-22.23958,9.6823-24.57277,22.23958h48.60374Z"/><path class="cls-1" d="m186.66441,36.98615v92.54111h-18.65241v-13.81126c-6.81169,9.14925-16.49836,14.8861-29.23041,14.8861-22.59786,0-40.5337-20.98123-40.5337-47.34539s17.93585-47.34539,40.5337-47.34539c12.73205,0,22.95614,6.09513,29.23041,15.06087v-13.98603h18.65241Zm-44.1165,75.32182c14.8861,0,25.4641-12.91119,25.4641-29.05127s-10.578-28.8765-25.4641-28.8765c-14.70696,0-25.64761,12.73642-25.64761,28.8765s10.94065,29.05127,25.64761,29.05127Z"/><path class="cls-1" d="m249.43359,53.8403h-15.96094c-6.63692,0-11.83635,5.74122-11.83635,12.19463v63.66898h-18.29413v-63.66898c0-16.14008,13.0947-29.05127,29.05564-29.05127h17.03578v16.85664Z"/><path class="cls-1" d="m259.29676,36.98317h15.7818V10.79814h18.65241v26.18503h23.13529v16.85664h-23.13529v46.62883c0,6.45778,5.02029,11.65721,11.65721,11.65721h11.47807v17.39843h-14.34868c-15.96094,0-27.25987-12.91119-27.25987-29.05564v-46.62883h-15.96094v-16.85664Z"/><path class="cls-1" d="m349.77123.3979v103.48175c0,4.12459,2.87061,7.17434,6.9952,7.17434,4.30373,0,6.63692-3.22889,8.07004-6.9952l17.57757-49.3203c5.19943-14.34431,14.34431-18.82718,25.10582-18.82718,13.81126,0,23.85621,10.75714,23.85621,25.28496v68.33099h-18.47327V62.63376c0-4.12896-3.04975-7.17434-7.17434-7.17434-4.30373,0-6.45778,3.22452-7.71176,6.99083l-17.21929,48.78288c-4.66201,13.0947-12.37377,19.36897-25.82238,19.36897-13.63212,0-23.85621-10.76151-23.85621-25.28496V.3979h18.65241Z"/><path class="cls-1" d="m548.04144,61.19627v42.68338c0,4.12459,3.04538,7.17434,6.99083,7.17434,4.48724,0,6.63692-3.22889,7.8909-6.9952l17.57757-49.3203c5.19943-14.34431,14.70696-18.82718,25.46847-18.82718,13.80689,0,23.85184,10.75714,23.85184,25.28496v68.33099h-18.47327V62.63376c0-4.12896-3.22889-7.17434-7.17434-7.17434-4.30373,0-6.27427,3.22452-7.53262,6.99083l-17.21492,48.78288c-4.66201,13.0947-12.73642,19.36897-26.00589,19.36897-13.81126,0-23.85184-10.76151-23.85184-25.28496v-42.68338c0-4.12896-3.04975-7.17434-7.17434-7.17434-4.30373,0-6.0995,3.22452-7.53262,6.99083l-17.21929,48.78288c-4.48287,13.0947-12.55291,19.36897-26.00152,19.36897-13.63212,0-23.85621-10.76151-23.85621-25.28496V36.98615h18.65241v66.8935c0,4.12459,2.87061,7.17434,6.9952,7.17434,4.30373,0,6.45778-3.22889,7.71176-6.9952l17.75671-49.3203c5.02029-14.34431,14.52345-18.82718,25.28496-18.82718,13.81126,0,23.85621,10.75714,23.85621,25.28496Z"/><path class="cls-1" d="m642.64045,83.2567c0-26.18503,19.36897-47.34539,44.83743-47.34539h.17914c25.46847,0,44.83743,21.16037,44.83743,47.34539s-19.36897,47.34539-44.83743,47.34539h-.17914c-25.46847,0-44.83743-21.16037-44.83743-47.34539Zm44.83743,29.05127h.17914c15.24438,0,26.18503-13.26947,26.18503-29.05127,0-15.42352-11.11979-29.05564-26.18503-29.05564h-.17914c-15.24438.17914-26.18503,13.27384-26.18503,29.05564s10.94065,29.05127,26.18503,29.05127Z"/><path class="cls-1" d="m822.43041,36.98615l-25.64324,72.0973c-5.2038,14.70696-14.52782,21.51865-27.9808,21.51865-13.98603,0-23.31442-10.76151-23.31442-25.28496V36.98615h18.65241v66.8935c0,4.12459,2.87061,7.17434,6.9952,7.17434,4.30373,0,6.63692-3.22889,7.71176-6.9952l24.03098-67.25178,19.54811.17914Z"/><path class="cls-1" d="m868.07524,113.74546c12.91119,0,19.54811-8.42832,21.34388-13.81126h19.18983c-1.43749,8.79097-12.01986,30.6679-40.5337,30.6679-26.72245,0-45.19571-20.44381-45.19571-47.34539,0-26.36417,18.83155-47.34539,44.30001-47.34539,24.74754,0,43.04166,20.98123,43.04166,46.27055,0,2.50796-.17914,4.84115-.35828,6.81169h-67.79357c1.61663,13.81126,10.22409,24.75191,26.00589,24.75191Zm23.13528-38.73793c-1.97491-12.37377-10.22409-22.23958-24.03098-22.23958-13.81126,0-22.23958,9.6823-24.57277,22.23958h48.60374Z"/><path class="cls-1" d="m969.67183,53.8403h-15.96094c-6.63692,0-11.83635,5.74122-11.83635,12.19463v63.66898h-18.29413v-63.66898c0-16.14008,13.0947-29.05127,29.05564-29.05127h17.03578v16.85664Z"/></svg>